# This file uses centimeters as units for non-parametric coordinates.

g default
v -100.031182 -150.000000 326.801986
v 100.031182 -150.000000 326.801986
v -100.031182 -113.206959 326.801986
v 100.031182 -113.206959 326.801986
v -100.031182 150.000000 -321.145326
v 100.031182 150.000000 -321.145326
v -100.031182 -150.000000 -321.145326
v 100.031182 -150.000000 -321.145326
v 100.031182 150.000000 -150.690436
v -100.031182 150.000000 -150.690436
v -100.031182 -150.000000 -150.690436
v 100.031182 -150.000000 -150.690436
v 100.031182 -113.206959 150.449276
v -100.031182 -113.206959 150.449276
v -100.031182 -150.000000 150.449276
v 100.031182 -150.000000 150.449276
vt 0.375000 0.000000
vt 0.625000 0.000000
vt 0.375000 0.250000
vt 0.625000 0.250000
vt 0.375000 0.500000
vt 0.625000 0.500000
vt 0.375000 0.750000
vt 0.625000 0.750000
vt 0.375000 1.000000
vt 0.625000 1.000000
vt 0.875000 0.000000
vt 0.875000 0.250000
vt 0.125000 0.000000
vt 0.125000 0.250000
vt 0.625000 0.450345
vt 0.825345 0.250000
vt 0.174655 0.250000
vt 0.375000 0.450345
vt 0.174655 0.000000
vt 0.375000 0.799655
vt 0.625000 0.799655
vt 0.825345 0.000000
vt 0.625000 0.299775
vt 0.674775 0.250000
vt 0.325225 0.250000
vt 0.375000 0.299775
vt 0.325225 0.000000
vt 0.375000 0.950225
vt 0.625000 0.950225
vt 0.674775 0.000000
vn 0.000000 0.000000 1.000000
vn 0.000000 0.000000 1.000000
vn 0.000000 0.000000 1.000000
vn 0.000000 0.000000 1.000000
vn 0.000000 1.000000 0.000000
vn 0.000000 1.000000 0.000000
vn 0.000000 1.000000 0.000000
vn 0.000000 1.000000 0.000000
vn 0.000000 0.000000 -1.000000
vn 0.000000 0.000000 -1.000000
vn 0.000000 0.000000 -1.000000
vn 0.000000 0.000000 -1.000000
vn 0.000000 -1.000000 0.000000
vn 0.000000 -1.000000 0.000000
vn 0.000000 -1.000000 0.000000
vn 0.000000 -1.000000 0.000000
vn 1.000000 0.000000 0.000000
vn 1.000000 0.000000 0.000000
vn 1.000000 0.000000 0.000000
vn 1.000000 0.000000 0.000000
vn -1.000000 0.000000 0.000000
vn -1.000000 0.000000 0.000000
vn -1.000000 0.000000 0.000000
vn -1.000000 0.000000 0.000000
vn 0.000000 1.000000 0.000000
vn 0.000000 1.000000 0.000000
vn 0.000000 1.000000 0.000000
vn 0.000000 1.000000 0.000000
vn -1.000000 0.000000 0.000000
vn -1.000000 0.000000 0.000000
vn -1.000000 0.000000 0.000000
vn -1.000000 0.000000 0.000000
vn 0.000000 -1.000000 0.000000
vn 0.000000 -1.000000 0.000000
vn 0.000000 -1.000000 0.000000
vn 0.000000 -1.000000 0.000000
vn 1.000000 0.000000 0.000000
vn 1.000000 0.000000 0.000000
vn 1.000000 0.000000 0.000000
vn 1.000000 0.000000 0.000000
vn 0.000000 0.752936 0.658093
vn 0.000000 0.752936 0.658093
vn 0.000000 0.752936 0.658093
vn 0.000000 0.752936 0.658093
vn -1.000000 0.000000 0.000000
vn -1.000000 0.000000 0.000000
vn -1.000000 0.000000 0.000000
vn -1.000000 0.000000 0.000000
vn 0.000000 -1.000000 0.000000
vn 0.000000 -1.000000 0.000000
vn 0.000000 -1.000000 0.000000
vn 0.000000 -1.000000 0.000000
vn 1.000000 0.000000 0.000000
vn 1.000000 0.000000 0.000000
vn 1.000000 0.000000 0.000000
vn 1.000000 0.000000 0.000000
s off
g Platform_3
f 1/1/1 2/2/2 4/4/3 3/3/4
f 3/3/5 4/4/6 13/23/7 14/26/8
f 5/5/9 6/6/10 8/8/11 7/7/12
f 15/28/13 16/29/14 2/10/15 1/9/16
f 2/2/17 16/30/18 13/24/19 4/4/20
f 15/27/21 1/1/22 3/3/23 14/25/24
f 10/18/25 9/15/26 6/6/27 5/5/28
f 7/13/29 11/19/30 10/17/31 5/14/32
f 7/7/33 8/8/34 12/21/35 11/20/36
f 9/16/37 12/22/38 8/11/39 6/12/40
f 14/26/41 13/23/42 9/15/43 10/18/44
f 11/19/45 15/27/46 14/25/47 10/17/48
f 11/20/49 12/21/50 16/29/51 15/28/52
f 13/24/53 16/30/54 12/22/55 9/16/56
